<svg width="14" height="14" viewBox="0 0 14 14" fill="none" xmlns="http://www.w3.org/2000/svg">
<path d="M6.5612 9.77149H7.4362V6.41732H6.5612V9.77149ZM6.9987 5.41894C7.13218 5.41894 7.24409 5.37378 7.33441 5.28346C7.42473 5.19314 7.46989 5.08124 7.46989 4.94776C7.46989 4.81427 7.42473 4.70237 7.33441 4.61205C7.24409 4.52183 7.13218 4.47671 6.9987 4.47671C6.86521 4.47671 6.75331 4.52183 6.66299 4.61205C6.57267 4.70237 6.52751 4.81427 6.52751 4.94776C6.52751 5.08124 6.57267 5.19314 6.66299 5.28346C6.75331 5.37378 6.86521 5.41894 6.9987 5.41894ZM6.99972 12.5423C6.23322 12.5423 5.51275 12.3969 4.83832 12.106C4.16389 11.8151 3.57725 11.4203 3.07841 10.9217C2.57956 10.423 2.18459 9.83662 1.89351 9.16248C1.60252 8.48835 1.45703 7.76807 1.45703 7.00167C1.45703 6.23517 1.60248 5.51471 1.89336 4.84028C2.18425 4.16585 2.57902 3.57921 3.07768 3.08036C3.57633 2.58151 4.16273 2.18655 4.83686 1.89546C5.511 1.60448 6.23127 1.45898 6.99768 1.45898C7.76418 1.45898 8.48464 1.60443 9.15907 1.89532C9.8335 2.18621 10.4201 2.58098 10.919 3.07963C11.4178 3.57828 11.8128 4.16468 12.1039 4.83882C12.3949 5.51296 12.5404 6.23323 12.5404 6.99963C12.5404 7.76613 12.3949 8.4866 12.104 9.16103C11.8131 9.83546 11.4184 10.4221 10.9197 10.9209C10.4211 11.4198 9.83467 11.8148 9.16053 12.1058C8.48639 12.3968 7.76612 12.5423 6.99972 12.5423ZM6.9987 11.6673C8.30148 11.6673 9.40495 11.2152 10.3091 10.3111C11.2133 9.4069 11.6654 8.30343 11.6654 7.00065C11.6654 5.69787 11.2133 4.5944 10.3091 3.69023C9.40495 2.78607 8.30148 2.33398 6.9987 2.33398C5.69592 2.33398 4.59245 2.78607 3.68828 3.69023C2.78411 4.5944 2.33203 5.69787 2.33203 7.00065C2.33203 8.30343 2.78411 9.4069 3.68828 10.3111C4.59245 11.2152 5.69592 11.6673 6.9987 11.6673Z" fill="#796E65"/>
</svg>
